<svg width="33" height="33" viewBox="0 0 33 33" fill="none" xmlns="http://www.w3.org/2000/svg">
<path d="M33 16.5C33 19.7634 32.0323 22.9535 30.2192 25.6669C28.4062 28.3803 25.8293 30.4952 22.8143 31.744C19.7993 32.9929 16.4817 33.3196 13.281 32.683C10.0803 32.0463 7.1403 30.4748 4.83274 28.1673C2.52517 25.8597 0.953699 22.9197 0.317043 19.719C-0.319613 16.5183 0.00714179 13.2007 1.25599 10.1857C2.50483 7.17074 4.61968 4.59379 7.33309 2.78075C10.0465 0.967708 13.2366 -3.89156e-08 16.5 0L16.5 6.40796C14.504 6.40796 12.5528 6.99985 10.8932 8.10877C9.23353 9.2177 7.94001 10.7939 7.17617 12.6379C6.41233 14.482 6.21247 16.5112 6.60187 18.4689C6.99128 20.4265 7.95245 22.2248 9.36385 23.6362C10.7752 25.0475 12.5735 26.0087 14.5311 26.3981C16.4888 26.7875 18.518 26.5877 20.3621 25.8238C22.2061 25.06 23.7823 23.7665 24.8912 22.1068C26.0002 20.4472 26.592 18.496 26.592 16.5H33Z" fill="white"/>
<circle cx="25.0276" cy="7.02774" r="5.937" transform="rotate(-168.175 25.0276 7.02774)" fill="white"/>
</svg>
