<svg width="46" height="46" viewBox="0 0 46 46" fill="none" xmlns="http://www.w3.org/2000/svg">
<path d="M46 23C46 27.549 44.6511 31.9958 42.1238 35.7781C39.5965 39.5604 36.0044 42.5084 31.8017 44.2492C27.599 45.99 22.9745 46.4455 18.5129 45.5581C14.0514 44.6706 9.95315 42.4801 6.73654 39.2635C3.51994 36.0468 1.3294 31.9486 0.441939 27.4871C-0.445522 23.0255 0.00995523 18.401 1.75077 14.1983C3.49159 9.99558 6.43955 6.40347 10.2219 3.8762C14.0042 1.34893 18.451 -5.42459e-08 23 0V8.93231C20.2177 8.93231 17.4978 9.75736 15.1844 11.3031C12.871 12.8489 11.0679 15.046 10.0031 17.6165C8.9384 20.1871 8.65981 23.0156 9.20261 25.7445C9.74542 28.4733 11.0852 30.98 13.0526 32.9474C15.02 34.9148 17.5267 36.2546 20.2555 36.7974C22.9844 37.3402 25.8129 37.0616 28.3835 35.9969C30.954 34.9321 33.1511 33.129 34.6969 30.8156C36.2426 28.5022 37.0677 25.7823 37.0677 23H46Z" fill="#5983FB"/>
<ellipse cx="34.887" cy="9.79623" rx="8.27582" ry="8.27582" transform="rotate(-168.175 34.887 9.79623)" fill="#515176"/>
</svg>
