<svg width="164" height="46" viewBox="0 0 164 46" fill="none" xmlns="http://www.w3.org/2000/svg">
<path d="M57.1733 35V15.3636H62.6193V35H57.1733ZM59.9091 12.8324C59.0994 12.8324 58.4048 12.5639 57.8253 12.027C57.2543 11.4815 56.9688 10.8295 56.9688 10.071C56.9688 9.32102 57.2543 8.67756 57.8253 8.14062C58.4048 7.59517 59.0994 7.32244 59.9091 7.32244C60.7188 7.32244 61.4091 7.59517 61.9801 8.14062C62.5597 8.67756 62.8494 9.32102 62.8494 10.071C62.8494 10.8295 62.5597 11.4815 61.9801 12.027C61.4091 12.5639 60.7188 12.8324 59.9091 12.8324ZM73.0415 35L65.8313 8.81818H66.7006L73.5529 33.7216H73.6552L80.3029 8.81818H81.4279L88.0756 33.7216H88.1779L95.0302 8.81818H95.8995L88.6893 35H87.5643L80.9165 10.0966H80.8143L74.1665 35H73.0415ZM103.464 35.4091C102.391 35.4091 101.398 35.1875 100.486 34.7443C99.5824 34.3011 98.8537 33.6534 98.2997 32.8011C97.7543 31.9489 97.4815 30.9091 97.4815 29.6818C97.4815 29.017 97.5881 28.3949 97.8011 27.8153C98.0142 27.2273 98.3892 26.6946 98.9261 26.2173C99.4631 25.7401 100.213 25.331 101.176 24.9901C102.148 24.6491 103.388 24.3892 104.896 24.2102C105.8 24.108 106.652 23.9886 107.453 23.8523C108.254 23.7159 108.906 23.5114 109.409 23.2386C109.912 22.9659 110.163 22.5739 110.163 22.0625V20.8864C110.163 19.3778 109.656 18.1676 108.642 17.2557C107.628 16.3352 106.277 15.875 104.589 15.875C103.209 15.875 102.003 16.1818 100.972 16.7955C99.9403 17.4006 99.2202 18.2528 98.8111 19.3523L98.044 19.0455C98.3509 18.2273 98.8239 17.5199 99.4631 16.9233C100.102 16.3267 100.861 15.8665 101.739 15.5426C102.616 15.2187 103.567 15.0568 104.589 15.0568C105.587 15.0568 106.477 15.206 107.261 15.5043C108.054 15.794 108.727 16.2031 109.281 16.7315C109.835 17.2514 110.257 17.8651 110.547 18.5724C110.837 19.2798 110.982 20.0511 110.982 20.8864V35H110.163V31.0114H110.061C109.652 31.8977 109.119 32.6733 108.463 33.3381C107.815 33.9943 107.065 34.5057 106.213 34.8722C105.369 35.2301 104.453 35.4091 103.464 35.4091ZM103.464 34.5909C104.709 34.5909 105.838 34.2585 106.852 33.5938C107.866 32.9205 108.672 31.9872 109.268 30.794C109.865 29.5923 110.163 28.1989 110.163 26.6136V23.6477C109.925 23.8267 109.635 23.9844 109.294 24.1207C108.962 24.2571 108.582 24.3807 108.156 24.4915C107.739 24.5937 107.283 24.6832 106.788 24.7599C106.294 24.8366 105.766 24.9091 105.203 24.9773C103.447 25.1818 102.067 25.4929 101.061 25.9105C100.055 26.3281 99.3438 26.8523 98.9261 27.483C98.5085 28.1136 98.2997 28.8466 98.2997 29.6818C98.2997 31.1648 98.794 32.3537 99.7827 33.2486C100.78 34.1435 102.007 34.5909 103.464 34.5909ZM118.85 8.81818V35H118.032V8.81818H118.85ZM126.62 8.81818V35H125.801V8.81818H126.62ZM140.935 35.4091C139.222 35.4091 137.722 34.9616 136.435 34.0668C135.156 33.1719 134.163 31.9574 133.456 30.4233C132.749 28.8892 132.395 27.1591 132.395 25.233C132.395 23.3068 132.749 21.5767 133.456 20.0426C134.172 18.5085 135.143 17.294 136.371 16.3991C137.598 15.5043 138.983 15.0568 140.526 15.0568C141.668 15.0568 142.724 15.2997 143.696 15.7855C144.676 16.2713 145.528 16.9446 146.253 17.8054C146.977 18.6662 147.54 19.6591 147.94 20.7841C148.349 21.9006 148.554 23.0937 148.554 24.3636V25.1818H132.804V24.3636H147.736C147.736 22.7869 147.412 21.3594 146.764 20.081C146.116 18.794 145.247 17.7713 144.156 17.0128C143.065 16.2543 141.855 15.875 140.526 15.875C139.179 15.875 137.96 16.2756 136.869 17.0767C135.778 17.8778 134.905 18.9687 134.249 20.3494C133.592 21.7301 133.247 23.2898 133.213 25.0284V25.1307C133.213 26.8437 133.511 28.4205 134.108 29.8608C134.713 31.2926 135.591 32.4389 136.741 33.2997C137.892 34.1605 139.29 34.5909 140.935 34.5909C142.145 34.5909 143.159 34.3778 143.977 33.9517C144.804 33.5256 145.464 33.0355 145.959 32.4815C146.462 31.9276 146.832 31.4545 147.071 31.0625L147.736 31.5227C147.446 32.017 147.011 32.5668 146.432 33.1719C145.852 33.777 145.111 34.3011 144.207 34.7443C143.304 35.1875 142.213 35.4091 140.935 35.4091ZM160.485 15.3636V16.1818H152.712V15.3636H160.485ZM155.576 10.6591H156.394V30.858C156.394 31.625 156.564 32.2855 156.905 32.8395C157.246 33.3849 157.698 33.8068 158.26 34.1051C158.823 34.3949 159.428 34.5398 160.076 34.5398C160.323 34.5398 160.549 34.5185 160.753 34.4759C160.966 34.4332 161.184 34.3693 161.405 34.2841L161.661 35.0511C161.405 35.1449 161.154 35.2173 160.907 35.2685C160.659 35.3281 160.382 35.358 160.076 35.358C159.275 35.358 158.529 35.1747 157.838 34.8082C157.157 34.4418 156.607 33.9219 156.189 33.2486C155.78 32.5753 155.576 31.7784 155.576 30.858V10.6591Z" fill="black"/>
<path d="M46 22.5C46 25.7634 45.0323 28.9535 43.2192 31.6669C41.4062 34.3803 38.8293 36.4952 35.8143 37.744C32.7993 38.9929 29.4817 39.3196 26.281 38.683C23.0803 38.0463 20.1403 36.4748 17.8327 34.1673C15.5252 31.8597 13.9537 28.9197 13.317 25.719C12.6804 22.5183 13.0071 19.2007 14.256 16.1857C15.5048 13.1707 17.6197 10.5938 20.3331 8.78075C23.0465 6.96771 26.2366 6 29.5 6V12.408C27.504 12.408 25.5528 12.9998 23.8932 14.1088C22.2335 15.2177 20.94 16.7939 20.1762 18.6379C19.4123 20.482 19.2125 22.5112 19.6019 24.4689C19.9913 26.4265 20.9525 28.2248 22.3638 29.6362C23.7752 31.0475 25.5735 32.0087 27.5311 32.3981C29.4888 32.7875 31.518 32.5877 33.3621 31.8238C35.2061 31.06 36.7823 29.7665 37.8912 28.1068C39.0002 26.4472 39.592 24.496 39.592 22.5H46Z" fill="black"/>
<circle cx="38.0276" cy="13.0277" r="5.937" transform="rotate(-168.175 38.0276 13.0277)" fill="black"/>
</svg>
