<svg width="24" height="24" viewBox="0 0 24 24" fill="none" xmlns="http://www.w3.org/2000/svg">
<path fill-rule="evenodd" clip-rule="evenodd" d="M12 0C11.4477 0 11 0.447716 11 1V3.05297C7.88833 3.38738 5.50003 5.2794 5.50003 8C5.50003 8.90201 5.68575 9.67911 6.08367 10.3319C6.48202 10.9853 7.04358 11.433 7.65862 11.7573C8.26185 12.0754 8.94451 12.2892 9.62363 12.4656C10.0136 12.5669 10.4519 12.6673 10.8896 12.7676C10.9264 12.7761 10.9632 12.7845 11 12.793V18.949C9.95953 18.8375 9.16224 18.5505 8.55855 18.1602C7.78329 17.659 7.25646 16.9425 6.94571 16.0386C6.76618 15.5163 6.19724 15.2384 5.67495 15.418C5.15266 15.5975 4.8748 16.1664 5.05434 16.6887C5.4936 17.9666 6.27926 19.0682 7.47275 19.8398C8.43411 20.4613 9.61255 20.8382 11 20.9581V23C11 23.5523 11.4477 24 12 24C12.5523 24 13 23.5523 13 23V20.947C16.1117 20.6126 18.5 18.7206 18.5 16C18.5 15.1514 18.3057 14.4105 17.9093 13.7794C17.5166 13.1542 16.9681 12.7045 16.366 12.3652C15.4175 11.8306 14.2017 11.5053 13 11.2127V5.05097C14.0405 5.16246 14.8378 5.44953 15.4415 5.8398C16.2168 6.34097 16.7436 7.05746 17.0543 7.96144C17.2339 8.48373 17.8028 8.76159 18.3251 8.58205C18.8474 8.40251 19.1253 7.83357 18.9457 7.31128C18.5065 6.03345 17.7208 4.93175 16.5273 4.1602C15.5659 3.53872 14.3875 3.16181 13 3.04185V1C13 0.447715 12.5523 0 12 0ZM11 5.06198C8.63746 5.36788 7.50003 6.75213 7.50003 8C7.50003 8.62527 7.62681 9.02089 7.79138 9.29085C7.95553 9.56012 8.20647 9.78518 8.59144 9.98816C8.98821 10.1974 9.49305 10.3653 10.1264 10.5298C10.415 10.6048 10.7015 10.6724 11 10.741V5.06198ZM13 13.2747V18.938C15.3626 18.6321 16.5 17.2479 16.5 16C16.5 15.4668 16.3818 15.1077 16.2157 14.8433C16.046 14.573 15.782 14.3318 15.384 14.1075C14.7739 13.7636 13.9795 13.5234 13 13.2747Z" fill="#191B23"/>
</svg>
