<svg width="24" height="24" viewBox="0 0 24 24" fill="none" xmlns="http://www.w3.org/2000/svg">
<path d="M0 21C4.82822e-08 21.5523 0.447716 22 1 22H22C22.5523 22 23 21.5523 23 21C23 20.4477 22.5523 20 22 20H2L2 3C2 2.44772 1.55228 2 1 2C0.447716 2 2.85456e-07 2.44772 3.33739e-07 3L0 21Z" fill="#191B23"/>
<path fill-rule="evenodd" clip-rule="evenodd" d="M5 12C4.44772 12 4 12.4477 4 13V17C4 17.5523 4.44772 18 5 18H8C8.55229 18 9 17.5523 9 17L9 13C9 12.4477 8.55229 12 8 12H5ZM6 14V16L7 16V14L6 14Z" fill="#191B23"/>
<path fill-rule="evenodd" clip-rule="evenodd" d="M10 9C10 8.44771 10.4477 8 11 8H14C14.5523 8 15 8.44771 15 9L15 17C15 17.5523 14.5523 18 14 18H11C10.4477 18 10 17.5523 10 17L10 9ZM12 16L12 10H13L13 16H12Z" fill="#191B23"/>
<path fill-rule="evenodd" clip-rule="evenodd" d="M17 4C16.4477 4 16 4.44772 16 5V17C16 17.5523 16.4477 18 17 18H20C20.5523 18 21 17.5523 21 17V5C21 4.44772 20.5523 4 20 4L17 4ZM18 6V16H19V6H18Z" fill="#191B23"/>
</svg>
