<svg width="32" height="32" viewBox="0 0 32 32" fill="none" xmlns="http://www.w3.org/2000/svg">
<path d="M12.8471 5.83391L13.8437 5.91695V5.91695L12.8471 5.83391ZM12.696 7.64758L13.0694 8.57526L13.6413 8.34505L13.6925 7.73063L12.696 7.64758ZM10.4345 8.97L10.0082 9.87456L10.5724 10.1405L11.0594 9.75069L10.4345 8.97ZM8.77228 8.18653L8.34593 9.09108H8.34593L8.77228 8.18653ZM6.18753 8.99564L5.3215 8.49564H5.3215L6.18753 8.99564ZM5.02779 11.0044L5.89382 11.5044H5.89382L5.02779 11.0044ZM5.61946 13.6474L6.18965 12.8259H6.18965L5.61946 13.6474ZM7.14671 14.7074L8.13653 14.8498L8.22449 14.2382L7.7169 13.8859L7.14671 14.7074ZM7.14671 17.2926L7.7169 18.1141L8.22449 17.7618L8.13653 17.1502L7.14671 17.2926ZM5.61946 18.3526L5.04927 17.5311H5.04927L5.61946 18.3526ZM5.02779 20.9956L5.89382 20.4956H5.89382L5.02779 20.9956ZM6.18753 23.0044L5.3215 23.5044H5.3215L6.18753 23.0044ZM8.77228 23.8135L8.34593 22.9089H8.34593L8.77228 23.8135ZM10.4345 23.03L11.0594 22.2493L10.5724 21.8595L10.0082 22.1254L10.4345 23.03ZM12.696 24.3524L13.6925 24.2694L13.6413 23.655L13.0694 23.4247L12.696 24.3524ZM19.1528 26.1661L18.1562 26.083L19.1528 26.1661ZM19.3002 24.397L18.9395 23.4643L18.3557 23.6901L18.3037 24.3139L19.3002 24.397ZM21.634 23.0623L22.0604 22.1578L21.4997 21.8935L21.0136 22.2781L21.634 23.0623ZM23.2276 23.8135L22.8013 24.718L23.2276 23.8135ZM25.8124 23.0044L24.9464 22.5044L25.8124 23.0044ZM26.9721 20.9956L27.8382 21.4956L26.9721 20.9956ZM26.3805 18.3526L26.9507 17.5311L26.3805 18.3526ZM24.9523 17.3614L23.9636 17.2113L23.8701 17.8275L24.3821 18.1829L24.9523 17.3614ZM24.9523 14.6386L24.3821 13.8171L23.8701 14.1725L23.9636 14.7887L24.9523 14.6386ZM26.3805 13.6474L26.9507 14.4689L26.3805 13.6474ZM26.9721 11.0044L27.8382 10.5044V10.5044L26.9721 11.0044ZM25.8124 8.99564L24.9464 9.49564V9.49564L25.8124 8.99564ZM23.2276 8.18653L23.654 9.09108L23.2276 8.18653ZM21.634 8.93767L21.0136 9.72193L21.4997 10.1065L22.0604 9.84223L21.634 8.93767ZM19.3002 7.60301L18.3037 7.68605L18.3557 8.30986L18.9395 8.53567L19.3002 7.60301ZM19.1528 5.83391L20.1493 5.75086L19.1528 5.83391ZM13.8437 5.91695C13.8869 5.39866 14.3201 5 14.8402 5V3C13.28 3 11.9802 4.19599 11.8506 5.75086L13.8437 5.91695ZM13.6925 7.73063L13.8437 5.91695L11.8506 5.75086L11.6995 7.56453L13.6925 7.73063ZM11.0594 9.75069C11.6643 9.26648 12.3405 8.8686 13.0694 8.57526L12.3226 6.7199C11.4101 7.08717 10.5648 7.58478 9.80959 8.18932L11.0594 9.75069ZM8.34593 9.09108L10.0082 9.87456L10.8609 8.06545L9.19864 7.28197L8.34593 9.09108ZM7.05355 9.49564C7.3136 9.04523 7.87548 8.86934 8.34593 9.09108L9.19864 7.28197C7.78729 6.61675 6.10163 7.14441 5.3215 8.49564L7.05355 9.49564ZM5.89382 11.5044L7.05355 9.49564L5.3215 8.49564L4.16177 10.5044L5.89382 11.5044ZM6.18965 12.8259C5.76239 12.5293 5.63377 11.9548 5.89382 11.5044L4.16177 10.5044C3.38163 11.8556 3.76749 13.5792 5.04927 14.4689L6.18965 12.8259ZM7.7169 13.8859L6.18965 12.8259L5.04927 14.4689L6.57652 15.5289L7.7169 13.8859ZM8.05458 16C8.05458 15.6089 8.08258 15.2249 8.13653 14.8498L6.1569 14.5651C6.08942 15.0342 6.05458 15.5133 6.05458 16H8.05458ZM8.13653 17.1502C8.08258 16.7751 8.05458 16.3911 8.05458 16H6.05458C6.05458 16.4867 6.08943 16.9658 6.1569 17.4349L8.13653 17.1502ZM6.18965 19.1741L7.7169 18.1141L6.57652 16.4711L5.04927 17.5311L6.18965 19.1741ZM5.89382 20.4956C5.63377 20.0452 5.76239 19.4707 6.18965 19.1741L5.04927 17.5311C3.76749 18.4208 3.38163 20.1444 4.16177 21.4956L5.89382 20.4956ZM7.05355 22.5044L5.89382 20.4956L4.16177 21.4956L5.3215 23.5044L7.05355 22.5044ZM8.34593 22.9089C7.87548 23.1307 7.3136 22.9548 7.05355 22.5044L5.3215 23.5044C6.10164 24.8556 7.78729 25.3833 9.19864 24.718L8.34593 22.9089ZM10.0082 22.1254L8.34593 22.9089L9.19864 24.718L10.8609 23.9346L10.0082 22.1254ZM13.0694 23.4247C12.3405 23.1314 11.6643 22.7335 11.0594 22.2493L9.80959 23.8107C10.5648 24.4152 11.4101 24.9128 12.3226 25.2801L13.0694 23.4247ZM13.8437 26.083L13.6925 24.2694L11.6995 24.4355L11.8506 26.2491L13.8437 26.083ZM14.8402 27C14.3201 27 13.8869 26.6013 13.8437 26.083L11.8506 26.2491C11.9802 27.804 13.28 29 14.8402 29V27ZM17.1597 27H14.8402V29H17.1597V27ZM18.1562 26.083C18.1131 26.6013 17.6798 27 17.1597 27V29C18.72 29 20.0198 27.804 20.1493 26.2491L18.1562 26.083ZM18.3037 24.3139L18.1562 26.083L20.1493 26.2491L20.2968 24.48L18.3037 24.3139ZM21.0136 22.2781C20.3901 22.7713 19.6921 23.1732 18.9395 23.4643L19.661 25.3297C20.6033 24.9652 21.476 24.4624 22.2544 23.8466L21.0136 22.2781ZM23.654 22.9089L22.0604 22.1578L21.2077 23.9669L22.8013 24.718L23.654 22.9089ZM24.9464 22.5044C24.6863 22.9548 24.1244 23.1307 23.654 22.9089L22.8013 24.718C24.2126 25.3833 25.8983 24.8556 26.6784 23.5044L24.9464 22.5044ZM26.1061 20.4956L24.9464 22.5044L26.6784 23.5044L27.8382 21.4956L26.1061 20.4956ZM25.8103 19.1741C26.2375 19.4707 26.3662 20.0452 26.1061 20.4956L27.8382 21.4956C28.6183 20.1444 28.2324 18.4208 26.9507 17.5311L25.8103 19.1741ZM24.3821 18.1829L25.8103 19.1741L26.9507 17.5311L25.5225 16.5398L24.3821 18.1829ZM24.0546 16C24.0546 16.4124 24.0235 16.8169 23.9636 17.2113L25.941 17.5114C26.0158 17.0179 26.0546 16.5132 26.0546 16H24.0546ZM23.9636 14.7887C24.0235 15.1831 24.0546 15.5876 24.0546 16H26.0546C26.0546 15.4868 26.0158 14.9821 25.941 14.4886L23.9636 14.7887ZM25.8103 12.8259L24.3821 13.8171L25.5225 15.4602L26.9507 14.4689L25.8103 12.8259ZM26.1061 11.5044C26.3662 11.9548 26.2375 12.5293 25.8103 12.8259L26.9507 14.4689C28.2324 13.5792 28.6183 11.8556 27.8382 10.5044L26.1061 11.5044ZM24.9464 9.49564L26.1061 11.5044L27.8382 10.5044L26.6784 8.49564L24.9464 9.49564ZM23.654 9.09108C24.1244 8.86934 24.6863 9.04523 24.9464 9.49564L26.6784 8.49564C25.8983 7.14441 24.2126 6.61675 22.8013 7.28197L23.654 9.09108ZM22.0604 9.84223L23.654 9.09108L22.8013 7.28197L21.2077 8.03311L22.0604 9.84223ZM18.9395 8.53567C19.6921 8.82676 20.3901 9.22872 21.0136 9.72193L22.2544 8.15341C21.476 7.53761 20.6033 7.03482 19.661 6.67034L18.9395 8.53567ZM18.1562 5.91695L18.3037 7.68605L20.2968 7.51996L20.1493 5.75086L18.1562 5.91695ZM17.1597 5C17.6798 5 18.1131 5.39866 18.1562 5.91695L20.1493 5.75086C20.0198 4.19599 18.72 3 17.1597 3V5ZM14.8402 5H17.1597V3H14.8402V5Z" fill="#464646"/>
<circle cx="16.0546" cy="16" r="4" stroke="#464646" stroke-width="2"/>
</svg>
