<svg width="24" height="24" viewBox="0 0 24 24" fill="none" xmlns="http://www.w3.org/2000/svg">
<path fill-rule="evenodd" clip-rule="evenodd" d="M2 3C2 2.44772 2.44772 2 3 2H10C10.5523 2 11 2.44772 11 3V10C11 10.5523 10.5523 11 10 11H3C2.44772 11 2 10.5523 2 10V3ZM4 9V4H9V9H4Z" fill="#191B23"/>
<path fill-rule="evenodd" clip-rule="evenodd" d="M2 14C2 13.4477 2.44772 13 3 13H10C10.5523 13 11 13.4477 11 14V21C11 21.5523 10.5523 22 10 22H3C2.44772 22 2 21.5523 2 21V14ZM4 20V15H9V20H4Z" fill="#191B23"/>
<path fill-rule="evenodd" clip-rule="evenodd" d="M14 13C13.4477 13 13 13.4477 13 14V21C13 21.5523 13.4477 22 14 22H21C21.5523 22 22 21.5523 22 21V14C22 13.4477 21.5523 13 21 13H14ZM15 15V20H20V15H15Z" fill="#191B23"/>
<path fill-rule="evenodd" clip-rule="evenodd" d="M13 3C13 2.44772 13.4477 2 14 2H21C21.5523 2 22 2.44772 22 3V10C22 10.5523 21.5523 11 21 11H14C13.4477 11 13 10.5523 13 10V3ZM15 9V4H20V9H15Z" fill="#191B23"/>
</svg>
